<svg xmlns="http://www.w3.org/2000/svg" version="1.1" xmlns:xlink="http://www.w3.org/1999/xlink" viewBox="0 0 200 200"><rect width="200" height="200" fill="url('#gradient')"></rect><defs><linearGradient id="gradient" gradientTransform="rotate(45 0.5 0.5)"><stop offset="0%" stop-color="#8962ff"></stop><stop offset="100%" stop-color="#5c75ff"></stop></linearGradient></defs><g><g fill="#ffffff" transform="matrix(1.778959785522788,0,0,1.778959785522788,17.09013396121221,113.16664586571906)" stroke="#c1c2c1" stroke-width="0.2"><path d="M5.75 0L1.07 0L1.07-14.22L5.65-14.22Q7.54-14.22 9.04-13.36Q10.55-12.51 11.39-10.95Q12.24-9.39 12.25-7.46L12.25-7.46L12.25-6.81Q12.25-4.85 11.42-3.31Q10.60-1.76 9.10-0.88Q7.60-0.01 5.75 0L5.75 0ZM5.65-11.57L4.50-11.57L4.50-2.64L5.69-2.64Q7.17-2.64 7.96-3.69Q8.75-4.74 8.75-6.81L8.75-6.81L8.75-7.42Q8.75-9.48 7.96-10.53Q7.17-11.57 5.65-11.57L5.65-11.57ZM18.96 0.20L18.96 0.20Q16.53 0.20 15.03-1.25Q13.53-2.71 13.53-5.03L13.53-5.03L13.53-5.30Q13.53-6.92 14.13-8.16Q14.73-9.40 15.88-10.08Q17.03-10.76 18.61-10.76L18.61-10.76Q20.84-10.76 22.13-9.38Q23.42-8.00 23.42-5.53L23.42-5.53L23.42-4.25L16.88-4.25Q17.05-3.36 17.65-2.85Q18.24-2.34 19.19-2.34L19.19-2.34Q20.75-2.34 21.63-3.44L21.63-3.44L23.13-1.66Q22.52-0.81 21.39-0.31Q20.26 0.20 18.96 0.20ZM18.59-8.22L18.59-8.22Q17.15-8.22 16.88-6.31L16.88-6.31L20.20-6.31L20.20-6.56Q20.21-7.35 19.79-7.79Q19.38-8.22 18.59-8.22ZM27.19-10.57L28.83-3.92L30.50-10.57L33.96-10.57L30.52 0L27.16 0L23.71-10.57L27.19-10.57ZM42.43-3.78L42.43-3.78Q42.43-4.53 41.90-4.95Q41.37-5.37 40.03-5.82Q38.69-6.27 37.84-6.69L37.84-6.69Q35.08-8.05 35.08-10.42L35.08-10.42Q35.08-11.60 35.77-12.50Q36.46-13.41 37.71-13.91Q38.97-14.41 40.55-14.41L40.55-14.41Q42.08-14.41 43.30-13.87Q44.51-13.32 45.19-12.31Q45.86-11.30 45.86-10L45.86-10L42.44-10Q42.44-10.87 41.91-11.35Q41.38-11.83 40.47-11.83L40.47-11.83Q39.55-11.83 39.02-11.42Q38.49-11.02 38.49-10.39L38.49-10.39Q38.49-9.84 39.07-9.40Q39.66-8.96 41.13-8.48Q42.61-8.01 43.55-7.46L43.55-7.46Q45.86-6.13 45.86-3.80L45.86-3.80Q45.86-1.93 44.45-0.87Q43.05 0.20 40.60 0.20L40.60 0.20Q38.87 0.20 37.47-0.42Q36.06-1.04 35.36-2.12Q34.65-3.20 34.65-4.61L34.65-4.61L38.09-4.61Q38.09-3.47 38.68-2.92Q39.27-2.38 40.60-2.38L40.60-2.38Q41.45-2.38 41.94-2.75Q42.43-3.12 42.43-3.78ZM48.01-13.19L51.30-13.19L51.30-10.57L53.04-10.57L53.04-8.28L51.30-8.28L51.30-3.45Q51.30-2.85 51.51-2.62Q51.73-2.38 52.36-2.38L52.36-2.38Q52.85-2.38 53.18-2.44L53.18-2.44L53.18-0.09Q52.29 0.20 51.33 0.20L51.33 0.20Q49.63 0.20 48.82-0.61Q48.01-1.41 48.01-3.04L48.01-3.04L48.01-8.28L46.66-8.28L46.66-10.57L48.01-10.57L48.01-13.19ZM60.72 0L60.63-1.14Q59.58 0.20 57.80 0.20L57.80 0.20Q56.06 0.20 55.17-0.82Q54.28-1.83 54.28-3.72L54.28-3.72L54.28-10.57L57.57-10.57L57.57-3.70Q57.57-2.34 58.89-2.34L58.89-2.34Q60.02-2.34 60.50-3.15L60.50-3.15L60.50-10.57L63.81-10.57L63.81 0L60.72 0ZM65.20-5.36L65.20-5.36Q65.20-7.87 66.28-9.32Q67.36-10.76 69.31-10.76L69.31-10.76Q70.72-10.76 71.69-9.65L71.69-9.65L71.69-15L74.99-15L74.99 0L72.03 0L71.87-1.13Q70.85 0.20 69.29 0.20L69.29 0.20Q67.40 0.20 66.30-1.25Q65.20-2.70 65.20-5.36ZM68.50-5.76L68.49-5.16Q68.49-2.34 70.13-2.34L70.13-2.34Q71.22-2.34 71.69-3.26L71.69-3.26L71.69-7.29Q71.24-8.22 70.15-8.22L70.15-8.22Q68.62-8.22 68.50-5.76L68.50-5.76ZM80.33-10.57L80.33 0L77.03 0L77.03-10.57L80.33-10.57ZM76.84-13.29L76.84-13.29Q76.84-13.99 77.34-14.44Q77.85-14.89 78.66-14.89Q79.47-14.89 79.98-14.44Q80.49-13.99 80.49-13.29Q80.49-12.59 79.98-12.14Q79.47-11.69 78.66-11.69Q77.85-11.69 77.34-12.14Q76.84-12.59 76.84-13.29ZM81.95-4.82L81.94-5.38Q81.94-6.96 82.56-8.20Q83.17-9.43 84.33-10.10Q85.48-10.76 87.03-10.76L87.03-10.76Q89.40-10.76 90.77-9.29Q92.14-7.82 92.14-5.29L92.14-5.29L92.14-5.18Q92.14-2.71 90.77-1.25Q89.39 0.20 87.05 0.20L87.05 0.20Q84.79 0.20 83.43-1.16Q82.06-2.51 81.95-4.82L81.95-4.82ZM85.24-5.77L85.23-5.18Q85.23-3.71 85.69-3.03Q86.15-2.34 87.05-2.34L87.05-2.34Q88.81-2.34 88.85-5.05L88.85-5.05L88.85-5.38Q88.85-8.22 87.03-8.22L87.03-8.22Q85.38-8.22 85.24-5.77L85.24-5.77Z"></path></g></g></svg>